<svg width="900" height="300" viewBox="0 0 900 300" xmlns="http://www.w3.org/2000/svg">
<style>
  @keyframes twinkle   { 0%,100%{opacity:.15} 50%{opacity:1} }
  @keyframes blink     { 0%,49%{opacity:1} 50%,100%{opacity:0} }
  @keyframes steam     { 0%{opacity:.7;transform:translateY(0)scaleX(1)} 100%{opacity:0;transform:translateY(-18px)scaleX(1.5)} }
  @keyframes typeL     { 0%,100%{transform:rotate(0deg)} 50%{transform:rotate(5deg)} }
  @keyframes typeR     { 0%,100%{transform:rotate(0deg)} 50%{transform:rotate(-5deg)} }
  @keyframes barAnim   { 0%,100%{transform:scaleY(1)} 50%{transform:scaleY(1.7)} }
  @keyframes glow      { 0%,100%{opacity:.75} 50%{opacity:1} }
  @keyframes ledBlink  { 0%,100%{opacity:1} 50%{opacity:.15} }
  @keyframes headNod   { 0%,100%{transform:translateY(0)} 25%{transform:translateY(-1.5px)} 75%{transform:translateY(.5px)} }
  @keyframes scroll    { 0%{transform:translateY(0)} 50%{transform:translateY(-10px)} 100%{transform:translateY(0)} }
</style>
<defs>
  <linearGradient id="bg"  x1="0" y1="0" x2="0" y2="1"><stop offset="0%"   stop-color="#050b17"/><stop offset="100%" stop-color="#091321"/></linearGradient>
  <linearGradient id="flr" x1="0" y1="0" x2="0" y2="1"><stop offset="0%"   stop-color="#0b1623"/><stop offset="100%" stop-color="#060e19"/></linearGradient>
  <linearGradient id="dsk" x1="0" y1="0" x2="0" y2="1"><stop offset="0%"   stop-color="#3e2312"/><stop offset="100%" stop-color="#20110a"/></linearGradient>
  <linearGradient id="scr" x1="0" y1="0" x2="0" y2="1"><stop offset="0%"   stop-color="#0e1f3c"/><stop offset="100%" stop-color="#091524"/></linearGradient>
  <linearGradient id="topL" x1="0" y1="0" x2="1" y2="0">
    <stop offset="0%"   stop-color="#050b17" stop-opacity="0"/>
    <stop offset="25%"  stop-color="#36bcf7"/><stop offset="50%" stop-color="#a78bfa"/>
    <stop offset="75%"  stop-color="#36bcf7"/>
    <stop offset="100%" stop-color="#050b17" stop-opacity="0"/>
  </linearGradient>
  <radialGradient id="bloom" cx="50%" cy="50%" r="55%">
    <stop offset="0%"   stop-color="#1855a0" stop-opacity=".3"/>
    <stop offset="100%" stop-color="#091524" stop-opacity="0"/>
  </radialGradient>
  <filter id="gf" x="-30%" y="-30%" width="160%" height="160%">
    <feGaussianBlur stdDeviation="3" result="b"/>
    <feMerge><feMergeNode in="b"/><feMergeNode in="SourceGraphic"/></feMerge>
  </filter>
  <clipPath id="cp1"><rect x="384" y="84"  width="212" height="116" rx="4"/></clipPath>
  <clipPath id="cp2"><rect x="634" y="122" width="118" height="82"  rx="3"/></clipPath>
</defs>

<!-- ═══ ROOM ═══ -->
<rect width="900" height="300" fill="url(#bg)"/>
<rect y="244" width="900" height="56" fill="url(#flr)"/>
<line x1="0" y1="244" x2="900" y2="244" stroke="#121e2e" stroke-width="1.5"/>

<!-- Floor tiles -->
<g stroke="#0c1724" stroke-width=".8" opacity=".5">
  <line x1="150" y1="244" x2="150" y2="300"/><line x1="300" y1="244" x2="300" y2="300"/>
  <line x1="450" y1="244" x2="450" y2="300"/><line x1="600" y1="244" x2="600" y2="300"/>
  <line x1="750" y1="244" x2="750" y2="300"/><line x1="0" y1="272" x2="900" y2="272"/>
</g>

<!-- ═══ LEFT WALL + WINDOW ═══ -->
<rect width="192" height="244" fill="#060d1a"/>
<!-- Window outer frame -->
<rect x="20" y="22" width="154" height="196" rx="5" fill="#0a1b30" stroke="#163050" stroke-width="3"/>
<!-- Night sky -->
<rect x="27" y="29" width="140" height="183" fill="#020810"/>
<!-- Moon -->
<circle cx="140" cy="175" r="22" fill="#d5c9a4"/>
<circle cx="149" cy="170" r="19" fill="#020810"/>
<!-- Stars -->
<circle cx="40"  cy="45"  r="1.3" fill="#fff" style="animation:twinkle 2.4s ease-in-out infinite 0s"/>
<circle cx="76"  cy="38"  r="1.6" fill="#fff" style="animation:twinkle 3.2s ease-in-out infinite .5s"/>
<circle cx="118" cy="50"  r="1.0" fill="#fff" style="animation:twinkle 2.7s ease-in-out infinite 1s"/>
<circle cx="152" cy="42"  r="1.4" fill="#fff" style="animation:twinkle 2.0s ease-in-out infinite .2s"/>
<circle cx="55"  cy="78"  r="0.9" fill="#fff" style="animation:twinkle 3.6s ease-in-out infinite 1.5s"/>
<circle cx="96"  cy="64"  r="1.2" fill="#fff" style="animation:twinkle 2.2s ease-in-out infinite .8s"/>
<circle cx="135" cy="70"  r="1.1" fill="#fff" style="animation:twinkle 2.9s ease-in-out infinite .3s"/>
<circle cx="46"  cy="108" r="1.1" fill="#ffffd0" style="animation:twinkle 2.5s ease-in-out infinite 1.2s"/>
<circle cx="88"  cy="96"  r="1.5" fill="#fff" style="animation:twinkle 3.1s ease-in-out infinite .7s"/>
<circle cx="126" cy="93"  r="0.9" fill="#fff" style="animation:twinkle 2.6s ease-in-out infinite 1.8s"/>
<circle cx="42"  cy="136" r="1.0" fill="#fff" style="animation:twinkle 3.3s ease-in-out infinite 1.6s"/>
<circle cx="74"  cy="148" r="1.2" fill="#fff" style="animation:twinkle 2.4s ease-in-out infinite .9s"/>
<circle cx="112" cy="130" r="1.4" fill="#fff" style="animation:twinkle 1.9s ease-in-out infinite .1s"/>
<circle cx="158" cy="112" r="0.9" fill="#fff" style="animation:twinkle 2.8s ease-in-out infinite 1.4s"/>
<!-- Window cross dividers -->
<line x1="27" y1="122" x2="167" y2="122" stroke="#163050" stroke-width="2.5"/>
<line x1="97"  y1="29"  x2="97"  y2="212" stroke="#163050" stroke-width="2.5"/>
<!-- Window sill -->
<rect x="17" y="215" width="160" height="8" rx="2" fill="#163050"/>
<!-- Plant on sill -->
<rect x="146" y="202" width="20" height="14" rx="3" fill="#593b1c"/>
<ellipse cx="156" cy="202" rx="14" ry="9" fill="#256025"/>
<ellipse cx="149" cy="198" rx="9"  ry="7"  fill="#2e7a2e"/>
<ellipse cx="163" cy="197" rx="8"  ry="7"  fill="#256025"/>

<!-- ═══ CENTER-LEFT WALL ═══ -->
<rect x="192" y="0" width="200" height="244" fill="#060f1c"/>
<!-- Bookshelf -->
<rect x="200" y="162" width="184" height="7" rx="2" fill="#2c1810"/>
<!-- Books -->
<rect x="208" y="135" width="15" height="28" rx="1" fill="#c0392b"/>
<rect x="225" y="138" width="13" height="25" rx="1" fill="#2980b9"/>
<rect x="240" y="133" width="17" height="30" rx="1" fill="#27ae60"/>
<rect x="259" y="139" width="13" height="24" rx="1" fill="#8e44ad"/>
<rect x="274" y="135" width="15" height="28" rx="1" fill="#e67e22"/>
<rect x="291" y="137" width="14" height="26" rx="1" fill="#16a085"/>
<rect x="307" y="132" width="18" height="31" rx="1" fill="#d35400"/>
<rect x="327" y="138" width="13" height="25" rx="1" fill="#7f8c8d"/>
<rect x="342" y="134" width="15" height="29" rx="1" fill="#2c3e50"/>
<rect x="359" y="136" width="16" height="27" rx="1" fill="#c0392b"/>
<!-- Poster 1 -->
<rect x="205" y="25" width="80" height="98" rx="4" fill="#0b1b2e" stroke="#152d48" stroke-width="1.5"/>
<circle cx="245" cy="58" r="22" fill="#4b8bbe"/>
<circle cx="245" cy="58" r="14" fill="#306998"/>
<circle cx="238" cy="50" r="5" fill="#ffd43b"/><circle cx="252" cy="66" r="5" fill="#ffd43b"/>
<text x="245" y="103" font-family="Arial,sans-serif" font-size="9" fill="#4b8bbe" text-anchor="middle" font-weight="bold">PYTHON</text>
<!-- Poster 2 -->
<rect x="298" y="25" width="80" height="98" rx="4" fill="#0b1b2e" stroke="#152d48" stroke-width="1.5"/>
<text x="338" y="68" font-family="Arial" font-size="30" fill="#ff6f00" text-anchor="middle">⬡</text>
<text x="338" y="94" font-family="Arial,sans-serif" font-size="9" fill="#ff8f00" text-anchor="middle" font-weight="bold">TensorFlow</text>
<text x="338" y="107" font-family="monospace" font-size="7" fill="#ffaa44" text-anchor="middle">ML / AI</text>

<!-- ═══ SCREEN AMBIENT BLOOM ═══ -->
<ellipse cx="492" cy="205" rx="190" ry="90" fill="url(#bloom)" style="animation:glow 4s ease-in-out infinite"/>

<!-- ═══ MAIN MONITOR ═══ -->
<rect x="372" y="68" width="242" height="150" rx="10" fill="#141414" stroke="#202020" stroke-width="2"/>
<rect x="382" y="78" width="222" height="132" rx="6" fill="#0c1828"/>
<rect x="388" y="84" width="210" height="118" rx="4" fill="url(#scr)"/>
<!-- Code lines -->
<g clip-path="url(#cp1)" font-family="monospace" font-size="7.5" style="animation:scroll 8s ease-in-out infinite">
  <text x="393" y="100"><tspan fill="#36bcf7">user</tspan><tspan fill="#a78bfa">@arch</tspan><tspan fill="#fff">:~ $ </tspan><tspan fill="#e2e8f0">python model.py</tspan></text>
  <text x="393" y="112" fill="#475569">Loading weights... ████████ 100%</text>
  <text x="393" y="124" fill="#4ade80">Epoch 01/50  loss: 0.4821  acc: 82.3%</text>
  <text x="393" y="136" fill="#4ade80">Epoch 02/50  loss: 0.3016  acc: 89.1%</text>
  <text x="393" y="148" fill="#fbbf24">Epoch 03/50  loss: 0.2340  acc: 91.2%</text>
  <text x="393" y="160" fill="#4ade80">Epoch 04/50  loss: 0.1812  acc: 93.7%</text>
  <text x="393" y="172" fill="#4ade80">Epoch 05/50  loss: 0.1423  acc: 94.7%</text>
  <text x="393" y="184"><tspan fill="#36bcf7">user</tspan><tspan fill="#a78bfa">@arch</tspan><tspan fill="#fff">:~ $ </tspan></text>
</g>
<!-- Blinking cursor -->
<rect x="447" y="178" width="6" height="9" fill="#36bcf7" rx="1" style="animation:blink 1s step-end infinite"/>
<!-- Monitor stand -->
<rect x="486" y="218" width="10" height="28" rx="2" fill="#222"/>
<rect x="472" y="244" width="38" height="5" rx="3" fill="#2a2a2a"/>

<!-- ═══ SECOND MONITOR ═══ -->
<rect x="630" y="116" width="142" height="104" rx="8" fill="#121212" stroke="#1e1e1e" stroke-width="1.5"/>
<rect x="638" y="124" width="126" height="88" rx="4" fill="#09141e"/>
<g clip-path="url(#cp2)" font-family="monospace" font-size="6.5">
  <text x="643" y="136" fill="#a78bfa">/// Speech Model</text>
  <text x="643" y="147" fill="#64748b">def predict(audio):</text>
  <text x="643" y="158" fill="#36bcf7">  feat = extract(audio)</text>
  <text x="643" y="169" fill="#4ade80">  return model(feat)</text>
  <!-- Waveform bars at bottom -->
  <g transform="translate(643,200)" style="transform-origin:0 0">
    <rect x="0"  y="-24" width="6" height="24" fill="#36bcf7" rx="2" style="transform-origin:0 100%;animation:barAnim 1.2s ease-in-out infinite 0s"/>
    <rect x="9"  y="-34" width="6" height="34" fill="#36bcf7" rx="2" style="transform-origin:0 100%;animation:barAnim 1.5s ease-in-out infinite .2s"/>
    <rect x="18" y="-20" width="6" height="20" fill="#4ade80" rx="2" style="transform-origin:0 100%;animation:barAnim 1.1s ease-in-out infinite .4s"/>
    <rect x="27" y="-36" width="6" height="36" fill="#4ade80" rx="2" style="transform-origin:0 100%;animation:barAnim 1.7s ease-in-out infinite .1s"/>
    <rect x="36" y="-16" width="6" height="16" fill="#a78bfa" rx="2" style="transform-origin:0 100%;animation:barAnim 1.3s ease-in-out infinite .6s"/>
    <rect x="45" y="-28" width="6" height="28" fill="#a78bfa" rx="2" style="transform-origin:0 100%;animation:barAnim 1.4s ease-in-out infinite .3s"/>
    <rect x="54" y="-22" width="6" height="22" fill="#fbbf24" rx="2" style="transform-origin:0 100%;animation:barAnim 1.6s ease-in-out infinite .5s"/>
    <rect x="63" y="-38" width="6" height="38" fill="#fbbf24" rx="2" style="transform-origin:0 100%;animation:barAnim 1.2s ease-in-out infinite .7s"/>
    <rect x="72" y="-18" width="6" height="18" fill="#36bcf7" rx="2" style="transform-origin:0 100%;animation:barAnim 1.8s ease-in-out infinite .2s"/>
    <rect x="81" y="-30" width="6" height="30" fill="#36bcf7" rx="2" style="transform-origin:0 100%;animation:barAnim 1.3s ease-in-out infinite .8s"/>
    <rect x="90" y="-26" width="6" height="26" fill="#4ade80" rx="2" style="transform-origin:0 100%;animation:barAnim 1.5s ease-in-out infinite .4s"/>
    <rect x="99" y="-32" width="6" height="32" fill="#a78bfa" rx="2" style="transform-origin:0 100%;animation:barAnim 1.4s ease-in-out infinite .6s"/>
  </g>
</g>
<!-- Second monitor stand -->
<line x1="701" y1="220" x2="701" y2="226" stroke="#1c1c1c" stroke-width="8"/>
<rect x="686" y="223" width="30" height="4" rx="2" fill="#1c1c1c"/>

<!-- ═══ DESK ═══ -->
<rect x="266" y="214" width="586" height="34" rx="6" fill="url(#dsk)"/>
<rect x="266" y="214" width="586" height="3"  rx="2" fill="#5e3418"/>
<!-- Desk legs -->
<rect x="276" y="248" width="14" height="52" rx="3" fill="#180e06"/>
<rect x="834" y="248" width="14" height="52" rx="3" fill="#180e06"/>

<!-- ═══ KEYBOARD ═══ -->
<rect x="386" y="221" width="174" height="20" rx="4" fill="#181818" stroke="#242424" stroke-width="1"/>
<g fill="#222" stroke="#2c2c2c" stroke-width=".5">
  <rect x="391" y="223" width="9" height="5" rx="1"/><rect x="402" y="223" width="9" height="5" rx="1"/>
  <rect x="413" y="223" width="9" height="5" rx="1"/><rect x="424" y="223" width="9" height="5" rx="1"/>
  <rect x="435" y="223" width="9" height="5" rx="1"/><rect x="446" y="223" width="9" height="5" rx="1"/>
  <rect x="457" y="223" width="9" height="5" rx="1"/><rect x="468" y="223" width="9" height="5" rx="1"/>
  <rect x="479" y="223" width="9" height="5" rx="1"/><rect x="490" y="223" width="9" height="5" rx="1"/>
  <rect x="501" y="223" width="9" height="5" rx="1"/><rect x="512" y="223" width="9" height="5" rx="1"/>
  <rect x="391" y="231" width="12" height="5" rx="1"/><rect x="405" y="231" width="9" height="5" rx="1"/>
  <rect x="416" y="231" width="9" height="5" rx="1"/><rect x="427" y="231" width="9" height="5" rx="1"/>
  <rect x="438" y="231" width="9" height="5" rx="1"/><rect x="449" y="231" width="9" height="5" rx="1"/>
  <rect x="460" y="231" width="9" height="5" rx="1"/><rect x="471" y="231" width="9" height="5" rx="1"/>
  <rect x="482" y="231" width="9" height="5" rx="1"/><rect x="493" y="231" width="9" height="5" rx="1"/>
  <rect x="504" y="231" width="9" height="5" rx="1"/>
  <rect x="413" y="237" width="118" height="4" rx="2"/>
</g>

<!-- ═══ CHARACTER (back-facing, seated at desk, looking at screen) ═══ -->
<!-- Chair back -->
<rect x="584" y="150" width="58" height="76" rx="7" fill="#12202e" stroke="#1b3045" stroke-width="1.5"/>
<!-- Chair seat -->
<rect x="580" y="220" width="66" height="20" rx="5" fill="#12202e" stroke="#1b3045" stroke-width="1.5"/>
<!-- Chair pole -->
<rect x="607" y="240" width="9"  height="22" rx="2" fill="#333"/>
<ellipse cx="612" cy="262" rx="24"  ry="5" fill="#282828"/>
<!-- Armrests -->
<rect x="580" y="200" width="9" height="22" rx="3" fill="#1b3045"/>
<rect x="637" y="200" width="9" height="22" rx="3" fill="#1b3045"/>

<!-- Legs under desk (barely visible) -->
<rect x="592" y="224" width="18" height="22" rx="4" fill="#0f1b28"/>
<rect x="616" y="224" width="18" height="22" rx="4" fill="#0f1b28"/>

<!-- Torso (back view, hoodie/shirt) -->
<rect x="588" y="166" width="52" height="58" rx="10" fill="#1a3060"/>
<!-- Hoodie hood / collar at back of neck -->
<path d="M 598 166 Q 614 160 630 166" fill="#213878" stroke="#1a3060" stroke-width="1"/>

<!-- LEFT ARM (goes forward toward keyboard — typed from behind) -->
<g style="transform-origin:595px 182px; animation:typeL 0.3s ease-in-out infinite">
  <rect x="566" y="174" width="32" height="12" rx="6" fill="#1a3060" transform="rotate(-20 566 174)"/>
  <ellipse cx="546" cy="212" rx="11" ry="6" fill="#b87448" transform="rotate(-5 546 212)"/>
</g>

<!-- RIGHT ARM -->
<g style="transform-origin:633px 182px; animation:typeR 0.3s ease-in-out infinite 0.15s">
  <rect x="630" y="174" width="32" height="12" rx="6" fill="#1a3060" transform="rotate(20 630 174)"/>
  <ellipse cx="676" cy="212" rx="11" ry="6" fill="#b87448" transform="rotate(5 676 212)"/>
</g>

<!-- Neck (back) -->
<rect x="607" y="154" width="14" height="14" rx="5" fill="#b87448"/>

<!-- HEAD (back view — we see hair and back of head only) -->
<g style="transform-origin:614px 136px; animation:headNod 2.5s ease-in-out infinite">
  <!-- Head shape from behind -->
  <ellipse cx="614" cy="134" rx="26" ry="27" fill="#b87448"/>
  <!-- Hair covering most of head (back view) -->
  <ellipse cx="614" cy="116" rx="27" ry="22" fill="#111"/>
  <!-- Side hair -->
  <rect x="588" y="110" width="14" height="30" rx="7" fill="#111"/>
  <rect x="626" y="110" width="14" height="30" rx="7" fill="#111"/>
  <!-- Hair top -->
  <rect x="600" y="104" width="28" height="22" rx="10" fill="#111"/>
  <!-- Hair highlight (depth) -->
  <ellipse cx="608" cy="112" rx="10" ry="6" fill="#1a1a1a"/>
  <!-- Visible ear tips at sides -->
  <ellipse cx="588" cy="138" rx="5" ry="7" fill="#a06038"/>
  <ellipse cx="640" cy="138" rx="5" ry="7" fill="#a06038"/>
  <!-- Back of neck visible at bottom of head -->
  <rect x="606" y="152" width="14" height="6" rx="3" fill="#a06038"/>
</g>

<!-- ═══ DESK ITEMS ═══ -->
<!-- Coffee mug -->
<rect x="316" y="190" width="28" height="26" rx="5" fill="#e0d5c8"/>
<path d="M 344 198 Q 355 198 355 207 Q 355 217 344 217" fill="none" stroke="#c0b0a0" stroke-width="3"/>
<ellipse cx="330" cy="191" rx="13" ry="4" fill="#3a2010"/>
<!-- Mug logo -->
<text x="330" y="210" font-family="monospace" font-size="7" fill="#888" text-anchor="middle">&lt;/&gt;</text>
<!-- Steam -->
<path d="M 323 183 Q 325 174 323 168" fill="none" stroke="#bbb" stroke-width="1.5" stroke-linecap="round" style="animation:steam 2s ease-out infinite 0s"/>
<path d="M 330 181 Q 333 171 330 164" fill="none" stroke="#bbb" stroke-width="1.5" stroke-linecap="round" style="animation:steam 2s ease-out infinite .7s"/>
<path d="M 337 183 Q 339 173 337 167" fill="none" stroke="#bbb" stroke-width="1.5" stroke-linecap="round" style="animation:steam 2s ease-out infinite 1.3s"/>

<!-- Cactus -->
<path d="M 754 222 L 749 212 L 770 212 L 765 222 Z" fill="#8b5e3c"/>
<rect x="749" y="209" width="22" height="4" rx="2" fill="#a07040"/>
<rect x="755" y="186" width="10" height="25" rx="5" fill="#2e7a2e"/>
<rect x="747" y="194" width="9"  height="7" rx="4" fill="#2e7a2e"/>
<rect x="764" y="198" width="9"  height="7" rx="4" fill="#2e7a2e"/>

<!-- Headphones on desk -->
<path d="M 791 210 Q 791 193 806 193 Q 821 193 821 210" fill="none" stroke="#2a2a2a" stroke-width="4.5" stroke-linecap="round"/>
<rect x="787" y="208" width="8" height="12" rx="4" fill="#383838"/>
<rect x="817" y="208" width="8" height="12" rx="4" fill="#383838"/>
<circle cx="791" cy="209" r="2.5" fill="#36bcf7" style="animation:ledBlink 2s ease-in-out infinite"/>

<!-- Water bottle -->
<rect x="796" y="181" width="16" height="34" rx="7" fill="#1a3a58" opacity=".85" stroke="#24487a" stroke-width="1"/>
<rect x="799" y="178" width="10" height="5"  rx="3" fill="#0e75b6"/>
<rect x="797" y="202" width="14" height="13" rx="5" fill="#36bcf7" opacity=".22"/>

<!-- ═══ RIGHT WALL ═══ -->
<rect x="772" y="0" width="128" height="244" fill="#060e1b"/>
<!-- Right shelf -->
<rect x="780" y="128" width="110" height="6" rx="2" fill="#2c1810"/>
<!-- Docker figure -->
<ellipse cx="800" cy="120" rx="14" ry="8" fill="#2496ed"/>
<circle cx="793" cy="113" r="5" fill="#2496ed"/>
<!-- Pi badge -->
<circle cx="850" cy="58" r="20" fill="#0c1c30" stroke="#152d48" stroke-width="1.5"/>
<text x="850" y="65" font-family="Georgia,serif" font-size="22" fill="#a78bfa" text-anchor="middle">π</text>
<!-- Star -->
<text x="852" y="126" font-family="Arial" font-size="20" fill="#fbbf24" text-anchor="middle" style="animation:twinkle 3s ease-in-out infinite">★</text>

<!-- ═══ TOP + BOTTOM ACCENT LINES ═══ -->
<rect y="0"   width="900" height="3" fill="url(#topL)"/>
<rect y="297" width="900" height="3" fill="url(#topL)"/>
</svg>
